#define font_width 40
#define font_height 6
static unsigned char font_bits[] = {
   0x27, 0x77, 0x75, 0x71, 0x77, 0x25, 0x44, 0x15, 0x41, 0x55, 0x25, 0x67,
   0x77, 0x47, 0x77, 0x25, 0x41, 0x44, 0x45, 0x45, 0x27, 0x77, 0x74, 0x47,
   0x47, 0x00, 0x00, 0x00, 0x00, 0x00 };
